<svg width="24" height="24" viewBox="0 0 24 24" fill="none" xmlns="http://www.w3.org/2000/svg">
<g clip-path="url(#clip0_586_1777)">
<path d="M4.32001 1.91992C2.99521 1.91992 1.92001 2.99512 1.92001 4.31992V19.6799C1.92001 21.0047 2.99521 22.0799 4.32001 22.0799H19.68C21.0048 22.0799 22.08 21.0047 22.08 19.6799V4.31992C22.08 2.99512 21.0048 1.91992 19.68 1.91992H4.32001ZM5.76001 8.63992H8.99064C9.34104 8.63992 11.2369 8.61607 11.2369 10.3537C11.2369 11.2753 10.6079 11.587 10.3247 11.7262C10.7471 11.8606 11.52 12.2495 11.52 13.4399C11.52 15.2783 9.41259 15.3599 9.12939 15.3599H5.76001V8.63992ZM13.92 8.63992H17.28V9.59992H13.92V8.63992ZM7.20001 9.80617V11.3812H8.74595C8.95715 11.3812 9.6572 11.2655 9.6572 10.5599C9.6572 9.85432 8.74546 9.80617 8.60626 9.80617H7.20001ZM15.7106 10.0799C17.5826 10.0799 18.091 11.539 18.1678 11.8846C18.2398 12.235 18.24 12.5423 18.24 12.9599H14.4478C14.4478 13.3775 14.6691 14.3184 15.7875 14.3184C16.0851 14.3184 16.3054 14.2466 16.531 14.1074C16.7518 13.9682 16.8293 13.8332 16.9013 13.694H18.1631C17.9423 14.246 17.6449 14.6643 17.1985 14.9427C16.7521 15.2211 16.2337 15.3599 15.6385 15.3599C15.2641 15.3599 14.8944 15.2882 14.52 15.149C14.2224 15.0098 13.9252 14.8032 13.7044 14.5968C13.4836 14.3856 13.3347 14.1071 13.1859 13.7615C13.0371 13.4831 12.96 13.0655 12.96 12.7199C12.96 12.3743 13.0994 10.0799 15.7106 10.0799ZM15.7106 11.054C14.6258 11.054 14.4478 12.0958 14.4478 12.163H16.8291C16.7523 11.8174 16.4402 11.054 15.7106 11.054ZM7.20001 12.3412V14.1937H8.80876C8.94748 14.1937 9.92626 14.1508 9.92626 13.3012C9.92626 12.4564 9.15724 12.3412 8.80876 12.3412H7.20001Z" fill="white" fill-opacity="0.48"/>
</g>
<defs>
<clipPath id="clip0_586_1777">
<rect width="24" height="24" fill="white"/>
</clipPath>
</defs>
</svg>
