<svg width="24" height="24" viewBox="0 0 24 24" fill="none" xmlns="http://www.w3.org/2000/svg">
<path d="M19.98 5.16924C18.0694 3.63174 15.0469 3.37111 14.9175 3.36174C14.7169 3.34486 14.5256 3.45736 14.4431 3.64299C14.4356 3.65424 14.37 3.80611 14.2969 4.04236C15.5606 4.25611 17.1131 4.68549 18.5175 5.55736C18.7425 5.69611 18.8119 5.99236 18.6731 6.21736C18.5812 6.36549 18.4256 6.44611 18.2644 6.44611C18.1781 6.44611 18.09 6.42174 18.0112 6.37299C15.5962 4.87486 12.5812 4.79986 12 4.79986C11.4187 4.79986 8.40187 4.87486 5.98874 6.37299C5.76374 6.51361 5.46749 6.44424 5.32874 6.21924C5.18812 5.99236 5.25749 5.69799 5.48249 5.55736C6.88687 4.68736 8.43937 4.25611 9.70312 4.04424C9.62999 3.80611 9.56437 3.65611 9.55874 3.64299C9.47437 3.45736 9.28499 3.34111 9.08249 3.36174C8.95312 3.37111 5.93062 3.63174 3.99374 5.18986C2.98312 6.12549 0.959991 11.593 0.959991 16.3199C0.959991 16.4042 0.982491 16.4849 1.02374 16.558C2.41874 19.0105 6.22687 19.6517 7.09499 19.6799C7.09874 19.6799 7.10437 19.6799 7.10999 19.6799C7.26374 19.6799 7.40812 19.6067 7.49812 19.483L8.37562 18.2755C6.00749 17.6642 4.79812 16.6255 4.72874 16.5636C4.52999 16.3892 4.51124 16.0855 4.68749 15.8867C4.86187 15.688 5.16562 15.6692 5.36437 15.8436C5.39249 15.8699 7.61999 17.7599 12 17.7599C16.3875 17.7599 18.615 15.8624 18.6375 15.8436C18.8362 15.6711 19.1381 15.688 19.3144 15.8886C19.4887 16.0874 19.47 16.3892 19.2712 16.5636C19.2019 16.6255 17.9925 17.6642 15.6244 18.2755L16.5019 19.483C16.5919 19.6067 16.7362 19.6799 16.89 19.6799C16.8956 19.6799 16.9012 19.6799 16.905 19.6799C17.7731 19.6517 21.5812 19.0105 22.9762 16.558C23.0175 16.4849 23.04 16.4042 23.04 16.3199C23.04 11.593 21.0169 6.12549 19.98 5.16924ZM8.87999 14.3999C7.95187 14.3999 7.19999 13.5411 7.19999 12.4799C7.19999 11.4186 7.95187 10.5599 8.87999 10.5599C9.80812 10.5599 10.56 11.4186 10.56 12.4799C10.56 13.5411 9.80812 14.3999 8.87999 14.3999ZM15.12 14.3999C14.1919 14.3999 13.44 13.5411 13.44 12.4799C13.44 11.4186 14.1919 10.5599 15.12 10.5599C16.0481 10.5599 16.8 11.4186 16.8 12.4799C16.8 13.5411 16.0481 14.3999 15.12 14.3999Z" fill="white" fill-opacity="0.48"/>
</svg>
