<svg width="24" height="24" viewBox="0 0 24 24" fill="none" xmlns="http://www.w3.org/2000/svg">
<path d="M19.68 1.91992H4.32001C2.99521 1.91992 1.92001 2.99512 1.92001 4.31992V19.6799C1.92001 21.0047 2.99521 22.0799 4.32001 22.0799H19.68C21.0048 22.0799 22.08 21.0047 22.08 19.6799V4.31992C22.08 2.99512 21.0048 1.91992 19.68 1.91992ZM18.1056 15.8399L16.3152 15.8351C16.3152 15.8351 16.2768 15.8399 16.2144 15.8399C16.0704 15.8399 15.7728 15.8015 15.4224 15.5615C14.7936 15.1247 14.1936 14.0399 13.7184 14.0399C13.6848 14.0399 13.656 14.0447 13.6272 14.0543C13.2144 14.1839 13.0896 14.5967 13.0896 15.1007C13.0896 15.2783 12.9648 15.3599 12.6288 15.3599H11.7024C10.6656 15.3599 9.66241 15.3359 8.53441 14.1023C6.87361 12.2831 5.31841 9.04792 5.31841 9.04792C5.31841 9.04792 5.23201 8.86072 5.32321 8.75032C5.40961 8.64952 5.61121 8.63992 5.68801 8.63992C5.70721 8.63992 5.71681 8.63992 5.71681 8.63992H7.63681C7.63681 8.63992 7.81441 8.67352 7.94401 8.76952C8.05441 8.85112 8.11201 8.99992 8.11201 8.99992C8.11201 8.99992 8.43841 9.63352 8.84641 10.3487C9.53281 11.5295 9.90241 11.9231 10.1664 11.9231C10.2096 11.9231 10.2528 11.9135 10.296 11.8895C10.6896 11.6735 10.5744 9.92632 10.5744 9.92632C10.5744 9.92632 10.5792 9.29272 10.3728 9.01432C10.2144 8.79352 9.91201 8.73112 9.77761 8.71192C9.67201 8.69752 9.84481 8.44792 10.0752 8.33272C10.3728 8.18872 10.8672 8.15992 11.4624 8.15992H11.7504C12.312 8.16952 12.3264 8.22712 12.5472 8.27992C13.2096 8.43832 12.984 9.05752 12.984 10.5407C12.984 11.0159 12.8976 11.6831 13.2384 11.9087C13.2624 11.9231 13.296 11.9327 13.3392 11.9327C13.56 11.9327 14.0352 11.6495 14.7936 10.3679C15.216 9.63832 15.5424 8.91352 15.5424 8.91352C15.5424 8.91352 15.6144 8.78392 15.7248 8.71672C15.8304 8.65432 15.8304 8.65432 15.9696 8.65432H15.984C16.1376 8.65432 17.664 8.63992 18 8.63992H18.0384C18.36 8.63992 18.6528 8.64472 18.7056 8.84152C18.7824 9.13912 18.4704 9.67192 17.6496 10.7759C16.296 12.5855 16.1424 12.4511 17.2656 13.4975C18.3408 14.4959 18.5616 14.9807 18.6 15.0431C19.0464 15.7823 18.1056 15.8399 18.1056 15.8399Z" fill="white" fill-opacity="0.48"/>
</svg>
